<mxfile host="app.diagrams.net" agent="Mozilla/5.0 (Macintosh; Intel Mac OS X 10_15_7) AppleWebKit/605.1.15 (KHTML, like Gecko) Version/18.3 Safari/605.1.15" version="26.0.16">
  <diagram id="R2lEEEUBdFMjLlhIrx00" name="Page-1">
    <mxGraphModel dx="1080" dy="728" grid="1" gridSize="10" guides="1" tooltips="1" connect="1" arrows="1" fold="1" page="1" pageScale="1" pageWidth="850" pageHeight="1100" math="0" shadow="0" extFonts="Permanent Marker^https://fonts.googleapis.com/css?family=Permanent+Marker">
      <root>
        <mxCell id="0" />
        <mxCell id="1" parent="0" />
        <mxCell id="q2SKsyra8BNpYzEv5cK5-82" value="Authors" style="shape=table;startSize=30;container=1;collapsible=1;childLayout=tableLayout;fixedRows=1;rowLines=0;fontStyle=1;align=center;resizeLast=1;html=1;labelBackgroundColor=default;perimeterSpacing=1;rounded=0;" vertex="1" parent="1">
          <mxGeometry x="70" y="230" width="290" height="188" as="geometry">
            <mxRectangle x="90" y="312" width="80" height="30" as="alternateBounds" />
          </mxGeometry>
        </mxCell>
        <mxCell id="q2SKsyra8BNpYzEv5cK5-83" value="" style="shape=tableRow;horizontal=0;startSize=0;swimlaneHead=0;swimlaneBody=0;collapsible=0;dropTarget=0;points=[[0,0.5],[1,0.5]];portConstraint=eastwest;top=0;left=0;right=0;bottom=1;fontStyle=0;" vertex="1" parent="q2SKsyra8BNpYzEv5cK5-82">
          <mxGeometry y="30" width="290" height="30" as="geometry" />
        </mxCell>
        <mxCell id="q2SKsyra8BNpYzEv5cK5-84" value="PK" style="shape=partialRectangle;connectable=0;top=0;left=0;bottom=0;right=0;fontStyle=0;overflow=hidden;whiteSpace=wrap;html=1;" vertex="1" parent="q2SKsyra8BNpYzEv5cK5-83">
          <mxGeometry width="30" height="30" as="geometry">
            <mxRectangle width="30" height="30" as="alternateBounds" />
          </mxGeometry>
        </mxCell>
        <mxCell id="q2SKsyra8BNpYzEv5cK5-85" value="&lt;font style=&quot;font-size: 10px;&quot;&gt;&lt;code style=&quot;&quot; data-end=&quot;753&quot; data-start=&quot;742&quot;&gt;author_id&lt;/code&gt;&lt;span style=&quot;&quot;&gt;&amp;nbsp;(INT, PRIMARY KEY, AUTO_INCREMENT)&lt;/span&gt;&lt;/font&gt;" style="shape=partialRectangle;connectable=0;top=0;left=0;bottom=0;right=0;align=center;spacingLeft=6;fontStyle=0;overflow=hidden;whiteSpace=wrap;html=1;verticalAlign=middle;" vertex="1" parent="q2SKsyra8BNpYzEv5cK5-83">
          <mxGeometry x="30" width="260" height="30" as="geometry">
            <mxRectangle width="260" height="30" as="alternateBounds" />
          </mxGeometry>
        </mxCell>
        <mxCell id="q2SKsyra8BNpYzEv5cK5-86" value="" style="shape=tableRow;horizontal=0;startSize=0;swimlaneHead=0;swimlaneBody=0;collapsible=0;dropTarget=0;points=[[0,0.5],[1,0.5]];portConstraint=eastwest;top=0;left=0;right=0;bottom=0;fontStyle=0;" vertex="1" parent="q2SKsyra8BNpYzEv5cK5-82">
          <mxGeometry y="60" width="290" height="30" as="geometry" />
        </mxCell>
        <mxCell id="q2SKsyra8BNpYzEv5cK5-87" value="" style="shape=partialRectangle;connectable=0;top=0;left=0;bottom=0;right=0;editable=1;overflow=hidden;whiteSpace=wrap;html=1;fontStyle=0;" vertex="1" parent="q2SKsyra8BNpYzEv5cK5-86">
          <mxGeometry width="30" height="30" as="geometry">
            <mxRectangle width="30" height="30" as="alternateBounds" />
          </mxGeometry>
        </mxCell>
        <mxCell id="q2SKsyra8BNpYzEv5cK5-88" value="&lt;font&gt;&lt;code data-start=&quot;794&quot; data-end=&quot;806&quot;&gt;first_name&lt;/code&gt;&amp;nbsp;(VARCHAR(50), NOT NULL)&lt;/font&gt;" style="shape=partialRectangle;connectable=0;top=0;left=0;bottom=0;right=0;align=left;spacingLeft=6;overflow=hidden;whiteSpace=wrap;html=1;fontSize=10;fontStyle=0;" vertex="1" parent="q2SKsyra8BNpYzEv5cK5-86">
          <mxGeometry x="30" width="260" height="30" as="geometry">
            <mxRectangle width="260" height="30" as="alternateBounds" />
          </mxGeometry>
        </mxCell>
        <mxCell id="q2SKsyra8BNpYzEv5cK5-89" value="" style="shape=tableRow;horizontal=0;startSize=0;swimlaneHead=0;swimlaneBody=0;collapsible=0;dropTarget=0;points=[[0,0.5],[1,0.5]];portConstraint=eastwest;top=0;left=0;right=0;bottom=0;fontSize=10;fontStyle=0;" vertex="1" parent="q2SKsyra8BNpYzEv5cK5-82">
          <mxGeometry y="90" width="290" height="32" as="geometry" />
        </mxCell>
        <mxCell id="q2SKsyra8BNpYzEv5cK5-90" value="" style="shape=partialRectangle;connectable=0;top=0;left=0;bottom=0;right=0;editable=1;overflow=hidden;whiteSpace=wrap;html=1;fontSize=10;fontStyle=0;" vertex="1" parent="q2SKsyra8BNpYzEv5cK5-89">
          <mxGeometry width="30" height="32" as="geometry">
            <mxRectangle width="30" height="32" as="alternateBounds" />
          </mxGeometry>
        </mxCell>
        <mxCell id="q2SKsyra8BNpYzEv5cK5-91" value="&lt;code data-start=&quot;836&quot; data-end=&quot;847&quot; style=&quot;font-style: normal; font-variant-caps: normal; letter-spacing: normal; text-align: start; text-indent: 0px; text-transform: none; white-space: normal; word-spacing: 0px; -webkit-text-stroke-width: 0px; text-decoration: none; caret-color: rgb(0, 0, 0); color: rgb(0, 0, 0);&quot;&gt;last_name&lt;/code&gt;&lt;span style=&quot;font-style: normal; font-variant-caps: normal; letter-spacing: normal; text-align: start; text-indent: 0px; text-transform: none; white-space: normal; word-spacing: 0px; -webkit-text-stroke-width: 0px; text-decoration: none; caret-color: rgb(0, 0, 0); color: rgb(0, 0, 0); float: none; display: inline !important;&quot;&gt;&lt;span class=&quot;Apple-converted-space&quot;&gt;&amp;nbsp;&lt;/span&gt;(VARCHAR(50), NOT NULL)&lt;/span&gt;" style="shape=partialRectangle;connectable=0;top=0;left=0;bottom=0;right=0;align=left;spacingLeft=6;overflow=hidden;whiteSpace=wrap;html=1;fontSize=10;fontStyle=0;" vertex="1" parent="q2SKsyra8BNpYzEv5cK5-89">
          <mxGeometry x="30" width="260" height="32" as="geometry">
            <mxRectangle width="260" height="32" as="alternateBounds" />
          </mxGeometry>
        </mxCell>
        <mxCell id="q2SKsyra8BNpYzEv5cK5-92" value="" style="shape=tableRow;horizontal=0;startSize=0;swimlaneHead=0;swimlaneBody=0;collapsible=0;dropTarget=0;points=[[0,0.5],[1,0.5]];portConstraint=eastwest;top=0;left=0;right=0;bottom=0;movable=1;resizable=1;rotatable=1;deletable=1;editable=1;locked=0;connectable=1;fontSize=10;fontStyle=0;" vertex="1" parent="q2SKsyra8BNpYzEv5cK5-82">
          <mxGeometry y="122" width="290" height="38" as="geometry" />
        </mxCell>
        <mxCell id="q2SKsyra8BNpYzEv5cK5-93" value="" style="shape=partialRectangle;connectable=0;top=0;left=0;bottom=0;right=0;editable=1;overflow=hidden;whiteSpace=wrap;html=1;fontSize=10;fontStyle=0;" vertex="1" parent="q2SKsyra8BNpYzEv5cK5-92">
          <mxGeometry width="30" height="38" as="geometry">
            <mxRectangle width="30" height="38" as="alternateBounds" />
          </mxGeometry>
        </mxCell>
        <mxCell id="q2SKsyra8BNpYzEv5cK5-94" value="&lt;font&gt;&lt;code data-start=&quot;877&quot; data-end=&quot;889&quot;&gt;birth_date&lt;/code&gt;&amp;nbsp;(DATE)&lt;/font&gt;" style="shape=partialRectangle;connectable=1;top=0;left=0;bottom=0;right=0;align=left;spacingLeft=6;overflow=hidden;whiteSpace=wrap;html=1;movable=1;resizable=1;rotatable=1;deletable=1;editable=1;locked=0;fontSize=10;fontStyle=0;" vertex="1" parent="q2SKsyra8BNpYzEv5cK5-92">
          <mxGeometry x="30" width="260" height="38" as="geometry">
            <mxRectangle width="260" height="38" as="alternateBounds" />
          </mxGeometry>
        </mxCell>
        <mxCell id="q2SKsyra8BNpYzEv5cK5-117" value="" style="shape=tableRow;horizontal=0;startSize=0;swimlaneHead=0;swimlaneBody=0;collapsible=0;dropTarget=0;points=[[0,0.5],[1,0.5]];portConstraint=eastwest;top=0;left=0;right=0;bottom=0;movable=1;resizable=1;rotatable=1;deletable=1;editable=1;locked=0;connectable=1;fontSize=10;fontStyle=0;" vertex="1" parent="q2SKsyra8BNpYzEv5cK5-82">
          <mxGeometry y="160" width="290" height="28" as="geometry" />
        </mxCell>
        <mxCell id="q2SKsyra8BNpYzEv5cK5-118" value="" style="shape=partialRectangle;connectable=0;top=0;left=0;bottom=0;right=0;editable=1;overflow=hidden;whiteSpace=wrap;html=1;fontSize=10;fontStyle=0;" vertex="1" parent="q2SKsyra8BNpYzEv5cK5-117">
          <mxGeometry width="30" height="28" as="geometry">
            <mxRectangle width="30" height="28" as="alternateBounds" />
          </mxGeometry>
        </mxCell>
        <mxCell id="q2SKsyra8BNpYzEv5cK5-119" value="&lt;font&gt;email (&lt;span class=&quot;hljs-type&quot;&gt;VARCHAR&lt;/span&gt;(&lt;span class=&quot;hljs-number&quot;&gt;100&lt;/span&gt;),&amp;nbsp;&lt;span class=&quot;hljs-keyword&quot;&gt;UNIQUE&lt;/span&gt;)&lt;/font&gt;" style="shape=partialRectangle;connectable=1;top=0;left=0;bottom=0;right=0;align=left;spacingLeft=6;overflow=hidden;whiteSpace=wrap;html=1;movable=1;resizable=1;rotatable=1;deletable=1;editable=1;locked=0;fontSize=10;fontStyle=0;" vertex="1" parent="q2SKsyra8BNpYzEv5cK5-117">
          <mxGeometry x="30" width="260" height="28" as="geometry">
            <mxRectangle width="260" height="28" as="alternateBounds" />
          </mxGeometry>
        </mxCell>
        <mxCell id="q2SKsyra8BNpYzEv5cK5-95" value="Books" style="shape=table;startSize=30;container=1;collapsible=1;childLayout=tableLayout;fixedRows=1;rowLines=0;fontStyle=1;align=center;resizeLast=1;html=1;labelBackgroundColor=default;fillColor=default;" vertex="1" parent="1">
          <mxGeometry x="490" y="240" width="300" height="180" as="geometry" />
        </mxCell>
        <mxCell id="q2SKsyra8BNpYzEv5cK5-96" value="" style="shape=tableRow;horizontal=0;startSize=0;swimlaneHead=0;swimlaneBody=0;fillColor=default;collapsible=0;dropTarget=0;points=[[0,0.5],[1,0.5]];portConstraint=eastwest;top=0;left=0;right=0;bottom=1;fontStyle=0" vertex="1" parent="q2SKsyra8BNpYzEv5cK5-95">
          <mxGeometry y="30" width="300" height="30" as="geometry" />
        </mxCell>
        <mxCell id="q2SKsyra8BNpYzEv5cK5-97" value="PK" style="shape=partialRectangle;connectable=0;fillColor=default;top=0;left=0;bottom=0;right=0;fontStyle=0;overflow=hidden;whiteSpace=wrap;html=1;" vertex="1" parent="q2SKsyra8BNpYzEv5cK5-96">
          <mxGeometry width="30" height="30" as="geometry">
            <mxRectangle width="30" height="30" as="alternateBounds" />
          </mxGeometry>
        </mxCell>
        <mxCell id="q2SKsyra8BNpYzEv5cK5-98" value="&lt;font style=&quot;font-size: 10px;&quot;&gt;&lt;code data-start=&quot;984&quot; data-end=&quot;993&quot; style=&quot;&quot;&gt;book_id&lt;/code&gt;&lt;span style=&quot;&quot;&gt;&amp;nbsp;(INT, PRIMARY KEY, AUTO_INCREMENT)&lt;/span&gt;&lt;/font&gt;" style="shape=partialRectangle;connectable=0;fillColor=default;top=0;left=0;bottom=0;right=0;align=left;spacingLeft=6;fontStyle=0;overflow=hidden;whiteSpace=wrap;html=1;" vertex="1" parent="q2SKsyra8BNpYzEv5cK5-96">
          <mxGeometry x="30" width="270" height="30" as="geometry">
            <mxRectangle width="270" height="30" as="alternateBounds" />
          </mxGeometry>
        </mxCell>
        <mxCell id="q2SKsyra8BNpYzEv5cK5-99" value="" style="shape=tableRow;horizontal=0;startSize=0;swimlaneHead=0;swimlaneBody=0;fillColor=default;collapsible=0;dropTarget=0;points=[[0,0.5],[1,0.5]];portConstraint=eastwest;top=0;left=0;right=0;bottom=0;fontStyle=0" vertex="1" parent="q2SKsyra8BNpYzEv5cK5-95">
          <mxGeometry y="60" width="300" height="30" as="geometry" />
        </mxCell>
        <mxCell id="q2SKsyra8BNpYzEv5cK5-100" value="" style="shape=partialRectangle;connectable=0;fillColor=default;top=0;left=0;bottom=0;right=0;editable=1;overflow=hidden;whiteSpace=wrap;html=1;fontStyle=0" vertex="1" parent="q2SKsyra8BNpYzEv5cK5-99">
          <mxGeometry width="30" height="30" as="geometry">
            <mxRectangle width="30" height="30" as="alternateBounds" />
          </mxGeometry>
        </mxCell>
        <mxCell id="q2SKsyra8BNpYzEv5cK5-101" value="&lt;font&gt;&lt;code data-start=&quot;1034&quot; data-end=&quot;1041&quot;&gt;title&lt;/code&gt;&amp;nbsp;(VARCHAR(255), NOT NULL)&lt;/font&gt;" style="shape=partialRectangle;connectable=0;fillColor=default;top=0;left=0;bottom=0;right=0;align=left;spacingLeft=6;overflow=hidden;whiteSpace=wrap;html=1;fontSize=10;fontStyle=0" vertex="1" parent="q2SKsyra8BNpYzEv5cK5-99">
          <mxGeometry x="30" width="270" height="30" as="geometry">
            <mxRectangle width="270" height="30" as="alternateBounds" />
          </mxGeometry>
        </mxCell>
        <mxCell id="q2SKsyra8BNpYzEv5cK5-102" value="" style="shape=tableRow;horizontal=0;startSize=0;swimlaneHead=0;swimlaneBody=0;fillColor=default;collapsible=0;dropTarget=0;points=[[0,0.5],[1,0.5]];portConstraint=eastwest;top=0;left=0;right=0;bottom=0;fontStyle=0" vertex="1" parent="q2SKsyra8BNpYzEv5cK5-95">
          <mxGeometry y="90" width="300" height="30" as="geometry" />
        </mxCell>
        <mxCell id="q2SKsyra8BNpYzEv5cK5-103" value="" style="shape=partialRectangle;connectable=0;fillColor=default;top=0;left=0;bottom=0;right=0;editable=1;overflow=hidden;whiteSpace=wrap;html=1;fontStyle=0" vertex="1" parent="q2SKsyra8BNpYzEv5cK5-102">
          <mxGeometry width="30" height="30" as="geometry">
            <mxRectangle width="30" height="30" as="alternateBounds" />
          </mxGeometry>
        </mxCell>
        <mxCell id="q2SKsyra8BNpYzEv5cK5-104" value="&lt;font&gt;&lt;code data-start=&quot;1072&quot; data-end=&quot;1090&quot;&gt;publication_year&lt;/code&gt;&amp;nbsp;(YEAR, NOT NULL)&lt;/font&gt;" style="shape=partialRectangle;connectable=0;fillColor=default;top=0;left=0;bottom=0;right=0;align=left;spacingLeft=6;overflow=hidden;whiteSpace=wrap;html=1;fontSize=10;fontStyle=0" vertex="1" parent="q2SKsyra8BNpYzEv5cK5-102">
          <mxGeometry x="30" width="270" height="30" as="geometry">
            <mxRectangle width="270" height="30" as="alternateBounds" />
          </mxGeometry>
        </mxCell>
        <mxCell id="q2SKsyra8BNpYzEv5cK5-105" value="" style="shape=tableRow;horizontal=0;startSize=0;swimlaneHead=0;swimlaneBody=0;fillColor=default;collapsible=0;dropTarget=0;points=[[0,0.5],[1,0.5]];portConstraint=eastwest;top=0;left=0;right=0;bottom=0;fontStyle=0" vertex="1" parent="q2SKsyra8BNpYzEv5cK5-95">
          <mxGeometry y="120" width="300" height="30" as="geometry" />
        </mxCell>
        <mxCell id="q2SKsyra8BNpYzEv5cK5-106" value="" style="shape=partialRectangle;connectable=0;fillColor=default;top=0;left=0;bottom=0;right=0;editable=1;overflow=hidden;whiteSpace=wrap;html=1;fontStyle=0" vertex="1" parent="q2SKsyra8BNpYzEv5cK5-105">
          <mxGeometry width="30" height="30" as="geometry">
            <mxRectangle width="30" height="30" as="alternateBounds" />
          </mxGeometry>
        </mxCell>
        <mxCell id="q2SKsyra8BNpYzEv5cK5-107" value="&lt;font&gt;&lt;code data-start=&quot;1113&quot; data-end=&quot;1120&quot;&gt;genre&lt;/code&gt;&amp;nbsp;(VARCHAR(100))&lt;/font&gt;" style="shape=partialRectangle;connectable=0;fillColor=default;top=0;left=0;bottom=0;right=0;align=left;spacingLeft=6;overflow=hidden;whiteSpace=wrap;html=1;fontSize=10;fontStyle=0" vertex="1" parent="q2SKsyra8BNpYzEv5cK5-105">
          <mxGeometry x="30" width="270" height="30" as="geometry">
            <mxRectangle width="270" height="30" as="alternateBounds" />
          </mxGeometry>
        </mxCell>
        <mxCell id="q2SKsyra8BNpYzEv5cK5-120" value="" style="shape=tableRow;horizontal=0;startSize=0;swimlaneHead=0;swimlaneBody=0;fillColor=default;collapsible=0;dropTarget=0;points=[[0,0.5],[1,0.5]];portConstraint=eastwest;top=0;left=0;right=0;bottom=0;fontStyle=0" vertex="1" parent="q2SKsyra8BNpYzEv5cK5-95">
          <mxGeometry y="150" width="300" height="30" as="geometry" />
        </mxCell>
        <mxCell id="q2SKsyra8BNpYzEv5cK5-121" value="FK" style="shape=partialRectangle;connectable=0;fillColor=default;top=0;left=0;bottom=0;right=0;editable=1;overflow=hidden;whiteSpace=wrap;html=1;fontStyle=0" vertex="1" parent="q2SKsyra8BNpYzEv5cK5-120">
          <mxGeometry width="30" height="30" as="geometry">
            <mxRectangle width="30" height="30" as="alternateBounds" />
          </mxGeometry>
        </mxCell>
        <mxCell id="q2SKsyra8BNpYzEv5cK5-122" value="&lt;font&gt;&lt;code data-start=&quot;1141&quot; data-end=&quot;1152&quot;&gt;author_id&lt;/code&gt;&amp;nbsp;(INT, FOREIGN KEY REFERENCES&amp;nbsp;&lt;code data-start=&quot;1182&quot; data-end=&quot;1191&quot;&gt;Authors&lt;/code&gt;(&lt;code data-start=&quot;1192&quot; data-end=&quot;1203&quot;&gt;author_id&lt;/code&gt;))&lt;/font&gt;" style="shape=partialRectangle;connectable=0;fillColor=default;top=0;left=0;bottom=0;right=0;align=left;spacingLeft=6;overflow=hidden;whiteSpace=wrap;html=1;fontSize=10;fontStyle=0" vertex="1" parent="q2SKsyra8BNpYzEv5cK5-120">
          <mxGeometry x="30" width="270" height="30" as="geometry">
            <mxRectangle width="270" height="30" as="alternateBounds" />
          </mxGeometry>
        </mxCell>
        <mxCell id="q2SKsyra8BNpYzEv5cK5-123" value="" style="edgeStyle=entityRelationEdgeStyle;fontSize=12;html=1;endArrow=ERzeroToMany;endFill=1;startArrow=ERone;rounded=0;exitX=1;exitY=0.5;exitDx=0;exitDy=0;movable=1;resizable=1;rotatable=1;deletable=1;editable=1;locked=0;connectable=1;startFill=0;fontStyle=0;fillColor=#e51400;strokeColor=#B20000;strokeWidth=3;" edge="1" parent="1" source="q2SKsyra8BNpYzEv5cK5-83" target="q2SKsyra8BNpYzEv5cK5-120">
          <mxGeometry width="100" height="100" relative="1" as="geometry">
            <mxPoint x="340" y="390" as="sourcePoint" />
            <mxPoint x="440" y="290" as="targetPoint" />
            <Array as="points">
              <mxPoint x="350" y="280" />
              <mxPoint x="420" y="360" />
            </Array>
          </mxGeometry>
        </mxCell>
      </root>
    </mxGraphModel>
  </diagram>
</mxfile>
